# xmcd
#
# Track frame offsets:
#	150
#	15761
#	38653
#	49563
#	67821
#	83879
#	105437
#	124037
#	137883
#	155896
#	172449
#	188463
#	203453
#	218087
# Disc length: 3165 seconds
# Revision: 1
# Processed by: cddbd v1.5.2PL0 Copyright (c) Steve Scherf et al.
#
# Submitted via: libkcddb 0.31
#
DISCID=b00c5b0e
DTITLE=Omar Izar - Música Brasileir
DYEAR=2006
DGENRE=Bossa Nova
TTITLE0=Antonio Carlos Jobim - Wave
TTITLE1=Antonio Carlos Jobim - Lígia
TTITLE2=Antonio Carlos Jobim - Samba do Avião
TTITLE3=Ivan Lins/Vitor Martins - Aos Nossos Filhos
TTITLE4=Antonio Carlos Jobim - Garota de Ipanema
TTITLE5=Sérgio Bittencourt - Modinha
TTITLE6=Bororó - Da Cor do Pecado
TTITLE7=Pixinguinha/Vinícius de Moraes - Lamentos
TTITLE8=Ivan Lins/Vitor Martins - Lembra de Mim
TTITLE9=Pixinguinha/Benedito Lacerda - Naquele Tempo
TTITLE10=Omar Izar - Espera
TTITLE11=Ivan Lins/Vitor Martins - Vitoriosa
TTITLE12=Omar Izar - Romântica
TTITLE13=Antonio C. Jobim/Vinícius de Moraes, Antonio C. Jobim, Antonio C. Jobim - Três temas de Amor
EXTD=50 anos de carreira - Gravado no Estúdio Bebop, São Paulo, Brasil, em Junho de 2006
EXTT0=
EXTT1=
EXTT2=
EXTT3=
EXTT4=
EXTT5=
EXTT6=
EXTT7=
EXTT8=
EXTT9=
EXTT10=
EXTT11=
EXTT12=
EXTT13=Eu Sei que Vou Te Amar,Tema de Amor de Gabriela,Falando de Amor
PLAYORDER=
